<?xml version="1.0" encoding="UTF-8"?>
<svg id="Layer_1" xmlns="http://www.w3.org/2000/svg" version="1.1" xmlns:xlink="http://www.w3.org/1999/xlink" viewBox="0 0 123 25">
  <!-- Generator: Adobe Illustrator 29.3.1, SVG Export Plug-In . SVG Version: 2.1.0 Build 151)  -->
  <defs>
    <style>
      .st0 {
        fill: #fff;
      }

      .st1 {
        fill: none;
      }

      .st2 {
        clip-path: url(#clippath);
      }
    </style>
    <clipPath id="clippath">
      <rect class="st1" y="0" width="123" height="25"/>
    </clipPath>
  </defs>
  <g class="st2">
    <g>
      <path class="st0" d="M4,16.5c0,1.4.3,2.5.7,3.2.5.9,1.3,1.2,2.1,1.2s2-.3,3.9-2.8c1.5-2.1,3.2-5,4.4-6.8l2-3.1c1.4-2.1,3-4.5,4.8-6.1C23.5.7,25.1,0,26.7,0,29.5,0,32.1,1.6,34.1,4.6c2.2,3.3,3.2,7.4,3.2,11.7s-.5,4.4-1.3,5.9c-.8,1.4-2.4,2.8-5.1,2.8v-4.1c2.3,0,2.9-2.1,2.9-4.5,0-3.5-.8-7.3-2.6-10-1.2-1.9-2.9-3.1-4.7-3.1s-3.5,1.5-5.2,4.1c-.9,1.4-1.9,3.1-2.9,5l-1.2,2.1c-2.4,4.2-3,5.2-4.1,6.8-2.1,2.8-3.8,3.8-6.2,3.8s-4.5-1.2-5.6-3c-.9-1.5-1.3-3.4-1.3-5.6h4Z"/>
      <path class="st0" d="M3.2,4.9C5,2,7.7,0,10.7,0s3.5.5,5.4,2c2,1.7,4.2,4.4,6.8,8.9l1,1.6c2.3,3.9,3.6,5.9,4.4,6.8,1,1.2,1.7,1.6,2.6,1.6,2.3,0,2.9-2.1,2.9-4.5h3.6c0,2.4-.5,4.3-1.3,5.8-.8,1.4-2.4,2.8-5.1,2.8s-3.1-.4-4.8-1.9c-1.3-1.2-2.7-3.3-3.8-5.2l-3.3-5.6c-1.7-2.8-3.2-4.9-4.1-5.9-1-1-2.2-2.3-4.2-2.3s-2.9,1.1-4.1,2.9l-3.4-2.1Z"/>
      <path class="st0" d="M10.7,4.1c-1.6,0-2.9,1.1-4.1,2.9-1.6,2.4-2.6,6.1-2.6,9.5s.3,2.5.7,3.2l-3.4,2.3c-.9-1.5-1.3-3.4-1.3-5.6,0-4,1.1-8.2,3.2-11.5C5,2,7.7,0,10.7,0v4.1Z"/>
      <path class="st0" d="M45.1.8h4.7l7.9,14.5,7.9-14.5h4.6v23.8h-3.8V6.3l-7,12.6h-3.6l-7-12.6v18.2h-3.8V.8ZM82.1,9.7c-2.7,0-4.4,2.1-4.8,4.6h9.3c-.2-2.6-1.7-4.6-4.5-4.6ZM73.6,15.7c0-5.4,3.5-9.3,8.6-9.3s8.1,3.9,8.1,9.6v1.1h-12.9c.5,2.8,2.3,4.7,5.2,4.7s3.8-.7,5.2-2.1l2,2.5c-1.9,1.8-4.3,2.8-7.4,2.8-5.6,0-8.9-4.1-8.9-9.2ZM94.9,10h-3.5v-3.1h3.5V1.7h3.7v5.2h5.3v3.1h-5.3v8c0,2.7.9,3.7,3,3.7s1.5,0,2.3-.2v3.1c-1,.3-2,.4-3,.4-4,0-5.9-2.2-5.9-6.6v-8.4ZM119.3,13c-.7-1.9-2.4-3.3-4.8-3.3s-5.1,2.2-5.1,5.9,1.9,5.9,5,5.9,4.2-1.5,4.9-3.3v-5.3ZM123,24.6h-3.6v-2.5c-1,1.5-2.8,2.9-5.8,2.9-4.8,0-8-4-8-9.3s3.3-9.3,8.2-9.3,4.3,1,5.6,2.7v-2.3h3.6v17.7Z"/>
    </g>
  </g>
</svg>